<svg xmlns="http://www.w3.org/2000/svg" xmlns:xlink="http://www.w3.org/1999/xlink" zoomAndPan="magnify" preserveAspectRatio="xMidYMid meet" version="1.0" viewBox="91.63 102.37 192.04 161.61"><defs><g/><clipPath id="3af7706df6"><path d="M 122.09375 102.367188 L 250 102.367188 L 250 225.367188 L 122.09375 225.367188 Z M 122.09375 102.367188 " clip-rule="nonzero"/></clipPath></defs><g clip-path="url(#3af7706df6)"><path fill="#ffffff" d="M 248.164062 136.226562 C 242.882812 115.746094 225.359375 102.554688 204.207031 102.542969 C 179.722656 102.523438 155.234375 102.535156 130.753906 102.535156 L 140.347656 119.4375 C 161.644531 119.398438 182.933594 119.410156 204.234375 119.425781 C 211.261719 119.425781 217.589844 121.488281 222.925781 126.167969 C 231.234375 133.449219 233.757812 142.890625 232.652344 153.496094 C 231.390625 165.769531 223.335938 176.078125 212.34375 178.714844 C 207.683594 179.839844 202.667969 179.398438 197.839844 179.882812 C 195.105469 180.164062 193.714844 179.027344 192.421875 176.746094 C 183.523438 161.085938 174.488281 145.496094 165.496094 129.898438 C 163.855469 127.046875 162.066406 127.015625 160.445312 129.816406 C 158.058594 133.945312 155.671875 138.082031 153.285156 142.214844 C 143.199219 159.695312 133.109375 177.164062 123.035156 194.65625 C 122.730469 195.195312 122.523438 195.785156 122.097656 196.730469 L 124.832031 196.730469 C 143.765625 196.730469 162.699219 196.773438 181.632812 196.667969 C 183.011719 196.65625 183.964844 196.949219 184.742188 197.625 C 185.238281 198.035156 185.648438 198.589844 186.058594 199.316406 C 191.003906 208.054688 196.058594 216.730469 201.035156 225.460938 L 220.621094 225.460938 C 218.285156 221.402344 216.046875 217.539062 213.824219 213.679688 C 210.660156 208.199219 207.511719 202.710938 204.390625 197.261719 C 204.765625 196.964844 204.882812 196.796875 205.019531 196.789062 C 205.585938 196.734375 206.167969 196.714844 206.746094 196.695312 C 215.402344 196.335938 223.25 193.625 230.367188 188.71875 C 247.953125 176.65625 252.894531 154.609375 248.164062 136.226562 Z M 151.238281 179.644531 C 155.152344 172.847656 158.929688 166.296875 162.925781 159.355469 C 165.179688 163.269531 167.355469 167.054688 169.542969 170.863281 C 171.21875 173.753906 172.886719 176.667969 174.601562 179.644531 Z M 151.238281 179.644531 " fill-opacity="1" fill-rule="nonzero"/></g><g fill="#ffffff" fill-opacity="1"><g transform="translate(90.540357, 262.85322)"><g><path d="M 1.46875 -1.40625 C 2.175781 -0.96875 3.179688 -0.554688 4.484375 -0.171875 C 5.785156 0.210938 6.875 0.40625 7.75 0.40625 C 9.40625 0.40625 10.832031 0.15625 12.03125 -0.34375 C 13.226562 -0.84375 14.132812 -1.53125 14.75 -2.40625 C 15.363281 -3.28125 15.671875 -4.289062 15.671875 -5.4375 C 15.671875 -6.457031 15.425781 -7.34375 14.9375 -8.09375 C 14.445312 -8.851562 13.835938 -9.5 13.109375 -10.03125 C 12.378906 -10.5625 11.398438 -11.179688 10.171875 -11.890625 L 9.265625 -12.421875 L 8.265625 -12.984375 C 7.210938 -13.609375 6.453125 -14.125 5.984375 -14.53125 C 5.515625 -14.9375 5.28125 -15.441406 5.28125 -16.046875 C 5.28125 -16.753906 5.578125 -17.289062 6.171875 -17.65625 C 6.765625 -18.019531 7.523438 -18.203125 8.453125 -18.203125 C 9.265625 -18.203125 10.019531 -18.085938 10.71875 -17.859375 C 11.414062 -17.628906 12.191406 -17.304688 13.046875 -16.890625 L 14.390625 -20.140625 C 12.179688 -21.203125 10.179688 -21.734375 8.390625 -21.734375 C 6.878906 -21.734375 5.578125 -21.488281 4.484375 -21 C 3.390625 -20.507812 2.550781 -19.832031 1.96875 -18.96875 C 1.382812 -18.101562 1.09375 -17.128906 1.09375 -16.046875 C 1.09375 -15.023438 1.390625 -14.101562 1.984375 -13.28125 C 2.578125 -12.457031 3.285156 -11.742188 4.109375 -11.140625 C 4.929688 -10.535156 6.039062 -9.816406 7.4375 -8.984375 L 8.359375 -8.421875 C 9.421875 -7.847656 10.207031 -7.347656 10.71875 -6.921875 C 11.226562 -6.492188 11.484375 -6.019531 11.484375 -5.5 C 11.484375 -4.75 11.160156 -4.175781 10.515625 -3.78125 C 9.867188 -3.382812 8.925781 -3.1875 7.6875 -3.1875 C 6.875 -3.1875 5.976562 -3.335938 5 -3.640625 C 4.019531 -3.941406 3.144531 -4.289062 2.375 -4.6875 Z M 1.46875 -1.40625 "/></g></g></g><g fill="#ffffff" fill-opacity="1"><g transform="translate(106.993586, 262.85322)"><g><path d="M 15.046875 -21.234375 L 15.046875 -12.234375 L 6.6875 -12.234375 L 6.6875 -21.390625 L 2.65625 -21.234375 L 2.65625 0 L 6.6875 0 L 6.6875 -8.984375 L 15.046875 -8.984375 L 15.046875 0 L 19.078125 0 L 19.078125 -21.234375 Z M 15.046875 -21.234375 "/></g></g></g><g fill="#ffffff" fill-opacity="1"><g transform="translate(128.723087, 262.85322)"><g><path d="M 11.484375 -21.734375 C 9.441406 -21.691406 7.628906 -21.191406 6.046875 -20.234375 C 4.472656 -19.273438 3.253906 -17.953125 2.390625 -16.265625 C 1.523438 -14.578125 1.09375 -12.660156 1.09375 -10.515625 C 1.09375 -8.460938 1.503906 -6.609375 2.328125 -4.953125 C 3.148438 -3.296875 4.34375 -1.984375 5.90625 -1.015625 C 7.476562 -0.046875 9.335938 0.4375 11.484375 0.4375 C 13.546875 0.394531 15.363281 -0.0976562 16.9375 -1.046875 C 18.507812 -1.992188 19.734375 -3.304688 20.609375 -4.984375 C 21.484375 -6.660156 21.921875 -8.578125 21.921875 -10.734375 C 21.921875 -12.796875 21.507812 -14.660156 20.6875 -16.328125 C 19.863281 -17.992188 18.660156 -19.3125 17.078125 -20.28125 C 15.492188 -21.25 13.628906 -21.734375 11.484375 -21.734375 Z M 5.3125 -10.546875 C 5.3125 -12.085938 5.597656 -13.445312 6.171875 -14.625 C 6.742188 -15.800781 7.5 -16.707031 8.4375 -17.34375 C 9.382812 -17.976562 10.421875 -18.296875 11.546875 -18.296875 C 12.773438 -18.296875 13.859375 -17.972656 14.796875 -17.328125 C 15.734375 -16.679688 16.453125 -15.785156 16.953125 -14.640625 C 17.453125 -13.492188 17.703125 -12.191406 17.703125 -10.734375 C 17.703125 -9.046875 17.425781 -7.613281 16.875 -6.4375 C 16.320312 -5.269531 15.570312 -4.398438 14.625 -3.828125 C 13.675781 -3.253906 12.617188 -2.96875 11.453125 -2.96875 C 10.203125 -2.96875 9.113281 -3.285156 8.1875 -3.921875 C 7.269531 -4.554688 6.5625 -5.445312 6.0625 -6.59375 C 5.5625 -7.75 5.3125 -9.066406 5.3125 -10.546875 Z M 5.3125 -10.546875 "/></g></g></g><g fill="#ffffff" fill-opacity="1"><g transform="translate(151.732623, 262.85322)"><g><path d="M 11.484375 -21.734375 C 9.441406 -21.691406 7.628906 -21.191406 6.046875 -20.234375 C 4.472656 -19.273438 3.253906 -17.953125 2.390625 -16.265625 C 1.523438 -14.578125 1.09375 -12.660156 1.09375 -10.515625 C 1.09375 -8.460938 1.503906 -6.609375 2.328125 -4.953125 C 3.148438 -3.296875 4.34375 -1.984375 5.90625 -1.015625 C 7.476562 -0.046875 9.335938 0.4375 11.484375 0.4375 C 13.546875 0.394531 15.363281 -0.0976562 16.9375 -1.046875 C 18.507812 -1.992188 19.734375 -3.304688 20.609375 -4.984375 C 21.484375 -6.660156 21.921875 -8.578125 21.921875 -10.734375 C 21.921875 -12.796875 21.507812 -14.660156 20.6875 -16.328125 C 19.863281 -17.992188 18.660156 -19.3125 17.078125 -20.28125 C 15.492188 -21.25 13.628906 -21.734375 11.484375 -21.734375 Z M 5.3125 -10.546875 C 5.3125 -12.085938 5.597656 -13.445312 6.171875 -14.625 C 6.742188 -15.800781 7.5 -16.707031 8.4375 -17.34375 C 9.382812 -17.976562 10.421875 -18.296875 11.546875 -18.296875 C 12.773438 -18.296875 13.859375 -17.972656 14.796875 -17.328125 C 15.734375 -16.679688 16.453125 -15.785156 16.953125 -14.640625 C 17.453125 -13.492188 17.703125 -12.191406 17.703125 -10.734375 C 17.703125 -9.046875 17.425781 -7.613281 16.875 -6.4375 C 16.320312 -5.269531 15.570312 -4.398438 14.625 -3.828125 C 13.675781 -3.253906 12.617188 -2.96875 11.453125 -2.96875 C 10.203125 -2.96875 9.113281 -3.285156 8.1875 -3.921875 C 7.269531 -4.554688 6.5625 -5.445312 6.0625 -6.59375 C 5.5625 -7.75 5.3125 -9.066406 5.3125 -10.546875 Z M 5.3125 -10.546875 "/></g></g></g><g fill="#ffffff" fill-opacity="1"><g transform="translate(174.742159, 262.85322)"><g><path d="M 0.3125 -18.046875 L 6.78125 -18.046875 L 6.78125 0 L 10.859375 0 L 10.859375 -18.046875 L 18.140625 -18.046875 L 17.484375 -21.234375 L 0.3125 -21.234375 Z M 0.3125 -18.046875 "/></g></g></g><g fill="#ffffff" fill-opacity="1"><g transform="translate(193.193502, 262.85322)"><g/></g></g><g fill="#ffffff" fill-opacity="1"><g transform="translate(200.218121, 262.85322)"><g><path d="M 21.921875 -10.734375 C 21.921875 -9.171875 21.691406 -7.734375 21.234375 -6.421875 C 20.773438 -5.117188 20.117188 -3.976562 19.265625 -3 L 21.359375 -0.96875 L 18.984375 1.125 L 16.765625 -0.9375 C 15.179688 -0.0390625 13.421875 0.414062 11.484375 0.4375 C 9.335938 0.4375 7.476562 -0.046875 5.90625 -1.015625 C 4.34375 -1.984375 3.148438 -3.296875 2.328125 -4.953125 C 1.503906 -6.609375 1.09375 -8.460938 1.09375 -10.515625 C 1.09375 -12.660156 1.523438 -14.578125 2.390625 -16.265625 C 3.253906 -17.953125 4.472656 -19.273438 6.046875 -20.234375 C 7.628906 -21.191406 9.441406 -21.691406 11.484375 -21.734375 C 13.628906 -21.734375 15.492188 -21.25 17.078125 -20.28125 C 18.660156 -19.3125 19.863281 -17.992188 20.6875 -16.328125 C 21.507812 -14.660156 21.921875 -12.796875 21.921875 -10.734375 Z M 11.453125 -2.96875 C 12.347656 -2.96875 13.203125 -3.144531 14.015625 -3.5 L 11.453125 -5.875 L 14.203125 -7.953125 L 16.484375 -5.75 C 17.296875 -7.0625 17.703125 -8.722656 17.703125 -10.734375 C 17.703125 -12.191406 17.453125 -13.492188 16.953125 -14.640625 C 16.453125 -15.785156 15.734375 -16.679688 14.796875 -17.328125 C 13.859375 -17.972656 12.773438 -18.296875 11.546875 -18.296875 C 10.421875 -18.296875 9.382812 -17.976562 8.4375 -17.34375 C 7.5 -16.707031 6.742188 -15.800781 6.171875 -14.625 C 5.597656 -13.445312 5.3125 -12.085938 5.3125 -10.546875 C 5.3125 -9.066406 5.5625 -7.75 6.0625 -6.59375 C 6.5625 -5.445312 7.269531 -4.554688 8.1875 -3.921875 C 9.113281 -3.285156 10.203125 -2.96875 11.453125 -2.96875 Z M 11.453125 -2.96875 "/></g></g></g><g fill="#ffffff" fill-opacity="1"><g transform="translate(223.227657, 262.85322)"><g><path d="M 2.375 -7.71875 C 2.375 -6.195312 2.726562 -4.820312 3.4375 -3.59375 C 4.144531 -2.363281 5.148438 -1.398438 6.453125 -0.703125 C 7.765625 -0.00390625 9.285156 0.34375 11.015625 0.34375 C 12.765625 0.34375 14.304688 -0.00390625 15.640625 -0.703125 C 16.972656 -1.398438 18.003906 -2.359375 18.734375 -3.578125 C 19.460938 -4.796875 19.828125 -6.175781 19.828125 -7.71875 L 19.828125 -21.234375 L 15.734375 -21.234375 L 15.734375 -8.015625 C 15.734375 -6.378906 15.3125 -5.128906 14.46875 -4.265625 C 13.625 -3.398438 12.492188 -2.96875 11.078125 -2.96875 C 9.660156 -2.96875 8.53125 -3.390625 7.6875 -4.234375 C 6.851562 -5.078125 6.4375 -6.335938 6.4375 -8.015625 L 6.4375 -21.234375 L 2.34375 -21.234375 Z M 2.375 -7.71875 "/></g></g></g><g fill="#ffffff" fill-opacity="1"><g transform="translate(245.394242, 262.85322)"><g><path d="M 4.375 0 L 6.25 -5 L 14.296875 -5 L 16.203125 0.3125 L 20.265625 -0.25 L 12.015625 -21.234375 L 8.578125 -21.234375 L 0.3125 0 Z M 10.203125 -15.671875 L 13.046875 -8.265625 L 7.4375 -8.265625 Z M 10.203125 -15.671875 "/></g></g></g><g fill="#ffffff" fill-opacity="1"><g transform="translate(265.96858, 262.85322)"><g><path d="M 9.015625 -7.40625 C 10.578125 -7.40625 12.015625 -7.65625 13.328125 -8.15625 C 14.640625 -8.664062 15.695312 -9.453125 16.5 -10.515625 C 17.300781 -11.578125 17.703125 -12.878906 17.703125 -14.421875 C 17.703125 -16.734375 16.925781 -18.445312 15.375 -19.5625 C 13.820312 -20.675781 11.796875 -21.234375 9.296875 -21.234375 L 2.65625 -21.234375 L 2.65625 0 L 6.6875 0 L 6.6875 -7.40625 Z M 9.171875 -17.859375 C 10.566406 -17.859375 11.625 -17.570312 12.34375 -17 C 13.0625 -16.425781 13.421875 -15.484375 13.421875 -14.171875 C 13.335938 -13.023438 12.929688 -12.164062 12.203125 -11.59375 C 11.472656 -11.019531 10.484375 -10.734375 9.234375 -10.734375 L 6.6875 -10.734375 L 6.6875 -17.859375 Z M 9.171875 -17.859375 "/></g></g></g></svg>